<?xml version="1.0" standalone="no"?><!DOCTYPE svg PUBLIC "-//W3C//DTD SVG 1.1//EN" "http://www.w3.org/Graphics/SVG/1.1/DTD/svg11.dtd">
<svg t="1602247517776" class="icon" viewBox="0 0 1280 1024" version="1.1" xmlns="http://www.w3.org/2000/svg" p-id="11264" xmlns:xlink="http://www.w3.org/1999/xlink" width="20" height="16"><defs><style type="text/css"></style></defs>
<path d="M493.436299 559.867801l0.191999-1.919986a27.583793 27.583793 0 0 0-27.647793-27.519793c-132.159009 0-239.742202-106.6232-239.742202-237.822217 0-131.199016 107.519194-237.822216 239.806202-237.822216 15.359885 0 27.711792-12.287908 27.711792-27.391794S481.27639 0 465.916506 0C303.357725 0 170.878718 131.199016 170.878718 292.605805c0 113.919146 65.919506 212.798404 161.918786 261.118042-192.254558 56.959573-332.797504 233.918246-332.797504 442.876678A27.519794 27.519794 0 0 0 27.647793 1023.99232c15.231886 0 27.519794-12.287908 27.519793-27.391795 0-224.638315 184.318618-407.292945 410.876919-407.292945a27.519794 27.519794 0 0 0 27.519793-27.391794v-2.047985z m453.756597-6.143954c95.99928-48.319638 161.918786-147.198896 161.918786-261.118042C1109.111682 131.327015 976.632675 0 814.073894 0c-162.750779 0-295.165786 131.199016-295.165786 292.605805 0 113.919146 65.919506 212.798404 161.918786 261.118042-192.254558 56.959573-332.797504 233.918246-332.797504 442.876678a27.519794 27.519794 0 0 0 27.519793 27.391795 27.519794 27.519794 0 0 0 27.711793-27.391795c0-224.638315 184.318618-407.292945 410.876918-407.292945 226.430302 0 410.68492 182.71863 410.68492 407.292945a27.519794 27.519794 0 0 0 27.519793 27.391795 27.519794 27.519794 0 0 0 27.711793-27.391795c0-208.958433-140.542946-385.917106-332.797504-442.876678zM814.073894 54.783589c132.159009 0 239.806201 106.6872 239.806202 237.822216 0 131.199016-107.647193 237.886216-239.870201 237.886216-132.351007 0-239.9982-106.751199-239.9982-237.950215S681.786887 54.783589 814.073894 54.783589z" fill="#BABBBA" p-id="11265"></path>
</svg>