<?xml version="1.0" standalone="no"?><!DOCTYPE svg PUBLIC "-//W3C//DTD SVG 1.1//EN" "http://www.w3.org/Graphics/SVG/1.1/DTD/svg11.dtd"><svg t="1602249431910" class="icon" viewBox="0 0 1024 1024" version="1.1" xmlns="http://www.w3.org/2000/svg" p-id="13367" xmlns:xlink="http://www.w3.org/1999/xlink" width="16" height="16"><defs><style type="text/css"></style></defs><path d="M512 757.333333C281.6 757.333333 100.266667 541.653333 92.586667 533.333333l-16.853334-21.333333 16.853334-21.333333C100.266667 482.346667 281.6 266.666667 512 266.666667S923.733333 482.346667 931.413333 490.666667l16.853334 21.333333-16.853334 21.333333c-7.68 8.32-189.013333 224-419.413333 224zM160.64 512c49.28 51.2 190.08 181.333333 351.36 181.333333s302.08-130.133333 351.36-181.333333c-49.28-51.2-190.08-181.333333-351.36-181.333333S209.92 460.8 160.64 512z" p-id="13368"></path><path d="M512 650.666667a138.666667 138.666667 0 1 1 138.666667-138.666667 138.88 138.88 0 0 1-138.666667 138.666667z m0-213.333334a74.666667 74.666667 0 1 0 74.666667 74.666667 74.666667 74.666667 0 0 0-74.666667-74.666667z" p-id="13369"></path></svg>